<?xml version="1.0" encoding="utf-8"?>
<!-- Generator: Adobe Illustrator 20.0.0, SVG Export Plug-In . SVG Version: 6.00 Build 0)  -->
<svg version="1.1" id="Layer_1" xmlns="http://www.w3.org/2000/svg" xmlns:xlink="http://www.w3.org/1999/xlink" x="0px" y="0px"
	 viewBox="0 0 256 256" style="enable-background:new 0 0 256 256;" xml:space="preserve">
<style type="text/css">
	.st0{fill:#72512B;}
	.st1{fill:#FFFFFF;}
	.st2{fill:#DDB648;}
	.st3{opacity:0.8;}
	.st4{opacity:0.65;}
	.st5{fill:#856642;}
	.st6{font-family:'SignPainter-HouseScript';}
	.st7{font-size:51.2px;}
	.st8{font-family:'Futura-Bold';}
	.st9{font-size:26.88px;}
</style>
<g>
	<rect class="st0" width="256" height="256"/>
</g>
<g>
	<path class="st1" d="M128,241.8c-62.7,0-113.8-51.1-113.8-113.8C14.2,65.3,65.3,14.2,128,14.2c62.7,0,113.8,51.1,113.8,113.8
		C241.8,190.7,190.7,241.8,128,241.8z"/>
	<path class="st2" d="M128,19.2c60.1,0,108.8,48.7,108.8,108.8S188.1,236.8,128,236.8S19.2,188.1,19.2,128S67.9,19.2,128,19.2
		 M128,9.2C96.3,9.2,66.4,21.6,44,44C21.6,66.4,9.2,96.3,9.2,128s12.4,61.6,34.8,84c22.4,22.4,52.3,34.8,84,34.8s61.6-12.4,84-34.8
		c22.4-22.4,34.8-52.3,34.8-84S234.4,66.4,212,44C189.6,21.6,159.7,9.2,128,9.2L128,9.2z"/>
</g>
<g class="st3">
	<g transform="translate(.20849,.22296)" class="st4">
		<path class="st2" d="M165,35.5c-2.5-0.3-5.8,6.9-5,8.6c0.4,0.8,0.1,1-0.9,2.6c-4.3,7-10.5,17.7-15.8,27.7
			c-6.2,11.8-8.6,20.9-15.8,26.1c-5.5,2.8-12.7,4.1-15.6,10.3c-14.2,30.3-28.3,60.8-42.5,91.1c-1.2,2.6,0.3,8.2,4.3,12.4
			c4.1,4.2,10,7.9,15.7,10.5c5.7,2.7,12.3,4.8,18.2,5.2c5.8,0.4,11-2,12.2-4.6c14.2-30.4,28.4-60.7,42.5-91.1
			c2.9-6.2-0.7-12.6-2.1-18.6c-0.6-8.8,4.8-16.5,9.9-28.8c4.3-10.5,8.4-22.2,11.1-30c0.6-1.8,0.6-2.1,1.4-2.3
			c1.8-0.4,5.2-7.6,3.4-9.3c-1.9-1.9-6.8-4-10.2-5.6C172.5,38.1,167.7,35.8,165,35.5L165,35.5z"/>
	</g>
	<g transform="translate(.20849,.22296)" class="st4">
		<path class="st5" d="M69.6,45.3c-1.8,1.7,1.6,8.9,3.4,9.3c0.8,0.2,0.8,0.6,1.4,2.3c2.6,7.8,6.8,19.5,11.1,30
			c5,12.3,10.4,20,9.9,28.8c-1.4,6-5,12.3-2.1,18.6c14.1,30.4,28.3,60.8,42.5,91.1c1.2,2.6,6.4,5.1,12.3,4.6
			c5.8-0.4,12.4-2.6,18.2-5.2c5.7-2.7,11.6-6.4,15.7-10.5c4.1-4.2,5.5-9.8,4.3-12.4c-14.2-30.4-28.3-60.8-42.5-91.1
			c-2.9-6.2-10.1-7.5-15.6-10.3c-7.1-5.2-9.5-14.3-15.8-26.1c-5.3-10-11.6-20.7-15.8-27.7c-1-1.6-1.2-1.8-0.9-2.6
			c0.8-1.7-2.5-8.9-5-8.6c-2.7,0.3-7.5,2.6-10.8,4.2C76.4,41.3,71.5,43.4,69.6,45.3L69.6,45.3z"/>
	</g>
</g>
<g>
	<g>
		<path class="st0" d="M58.6,79v30.5H48.5V79h-8.4v-8.6H67V79H58.6z"/>
	</g>
	<g>
		<path class="st0" d="M93.6,102.7H79.1l-2.3,6.8H65.9l14.9-39.1h11.1l14.9,39.1H96L93.6,102.7z M90.9,95l-4.6-13l-4.6,13H90.9z"/>
	</g>
	<g>
		<path class="st0" d="M121.4,109.5h-10.2V70.4h16.2c4.4,0,7.8,1.1,10.1,3.4c2.3,2.3,3.5,5.5,3.5,9.6c0,4.1-1.2,7.4-3.5,9.6
			c-2.3,2.3-5.7,3.4-10.1,3.4h-6V109.5z M121.4,88.3h3.4c3.7,0,5.6-1.6,5.6-4.9c0-3.2-1.9-4.9-5.6-4.9h-3.4V88.3z"/>
	</g>
	<g>
		<path class="st0" d="M156.6,109.5h-10.2V70.4h16.2c4.4,0,7.8,1.1,10.1,3.4c2.3,2.3,3.5,5.5,3.5,9.6c0,4.1-1.2,7.4-3.5,9.6
			c-2.3,2.3-5.7,3.4-10.1,3.4h-6V109.5z M156.6,88.3h3.4c3.7,0,5.6-1.6,5.6-4.9c0-3.2-1.9-4.9-5.6-4.9h-3.4V88.3z"/>
	</g>
	<g>
		<path class="st0" d="M181.6,70.4h15c2.7,0,5.2,0.5,7.5,1.6c2.3,1.1,4.4,2.5,6.1,4.3c1.7,1.8,3.1,3.9,4.1,6.2
			c1,2.4,1.5,4.8,1.5,7.4c0,2.6-0.5,5-1.5,7.4c-1,2.4-2.4,4.5-4.1,6.2c-1.7,1.8-3.8,3.2-6.1,4.3c-2.3,1.1-4.8,1.6-7.5,1.6h-15V70.4z
			 M191.8,100.9h2.3c1.8,0,3.3-0.3,4.7-0.8c1.4-0.6,2.5-1.3,3.5-2.3c1-1,1.7-2.1,2.2-3.4c0.5-1.3,0.8-2.8,0.8-4.4
			c0-1.6-0.3-3-0.8-4.4c-0.5-1.3-1.3-2.5-2.2-3.5c-1-1-2.1-1.7-3.5-2.3c-1.4-0.6-2.9-0.8-4.7-0.8h-2.3V100.9z"/>
	</g>
	<g>
		<path class="st0" d="M59,151.9H48.8v-39.1H65c4.4,0,7.8,1.1,10.1,3.4c2.3,2.3,3.5,5.5,3.5,9.6c0,4.1-1.2,7.4-3.5,9.6
			c-2.3,2.3-5.7,3.4-10.1,3.4h-6V151.9z M59,130.7h3.4c3.7,0,5.6-1.6,5.6-4.9c0-3.2-1.9-4.9-5.6-4.9H59V130.7z"/>
	</g>
	<g>
		<path class="st0" d="M116.5,151.9h-12.7l-9.7-15v15H84v-39.1h15.8c2.2,0,4.1,0.3,5.7,1c1.6,0.6,3,1.5,4,2.6
			c1.1,1.1,1.8,2.4,2.4,3.8c0.5,1.5,0.8,3,0.8,4.7c0,3-0.7,5.4-2.2,7.2c-1.4,1.9-3.6,3.1-6.4,3.8L116.5,151.9z M94.2,130.3h1.9
			c2,0,3.5-0.4,4.6-1.2c1.1-0.8,1.6-2,1.6-3.6c0-1.6-0.5-2.7-1.6-3.6c-1.1-0.8-2.6-1.2-4.6-1.2h-1.9V130.3z"/>
	</g>
	<g>
		<path class="st0" d="M143,121.4h-12.1v6.5h11.4v8.6h-11.4v6.7H143v8.6h-22.3v-39.1H143V121.4z"/>
	</g>
	<g>
		<path class="st0" d="M171.8,122.8c-1.1-0.9-2.2-1.6-3.3-2c-1.1-0.4-2.2-0.6-3.2-0.6c-1.3,0-2.4,0.3-3.2,0.9
			c-0.8,0.6-1.2,1.4-1.2,2.4c0,0.7,0.2,1.3,0.6,1.7c0.4,0.5,1,0.8,1.6,1.2s1.4,0.6,2.3,0.9c0.8,0.2,1.7,0.5,2.5,0.8
			c3.3,1.1,5.7,2.6,7.3,4.4c1.5,1.9,2.3,4.3,2.3,7.2c0,2-0.3,3.8-1,5.4c-0.7,1.6-1.7,3-3,4.2c-1.3,1.2-2.9,2.1-4.8,2.7
			c-1.9,0.6-4,1-6.4,1c-4.9,0-9.5-1.5-13.7-4.4l4.4-8.2c1.5,1.3,3,2.4,4.5,3c1.5,0.7,3,1,4.4,1c1.7,0,2.9-0.4,3.7-1.1
			c0.8-0.8,1.2-1.6,1.2-2.6c0-0.6-0.1-1.1-0.3-1.5c-0.2-0.4-0.6-0.8-1-1.2c-0.5-0.4-1.1-0.7-1.9-1s-1.7-0.7-2.8-1
			c-1.3-0.4-2.6-0.9-3.9-1.4c-1.3-0.5-2.4-1.2-3.4-2s-1.8-1.9-2.4-3.1c-0.6-1.3-0.9-2.9-0.9-4.8c0-1.9,0.3-3.7,1-5.3
			c0.6-1.6,1.5-2.9,2.7-4c1.2-1.1,2.6-2,4.3-2.6c1.7-0.6,3.6-0.9,5.6-0.9c1.9,0,4,0.3,6.1,0.8c2.1,0.5,4.1,1.3,6.1,2.4L171.8,122.8z
			"/>
	</g>
	<g>
		<path class="st0" d="M205.3,122.8c-1.1-0.9-2.2-1.6-3.3-2c-1.1-0.4-2.2-0.6-3.2-0.6c-1.3,0-2.4,0.3-3.2,0.9
			c-0.8,0.6-1.2,1.4-1.2,2.4c0,0.7,0.2,1.3,0.6,1.7c0.4,0.5,1,0.8,1.6,1.2c0.7,0.3,1.4,0.6,2.3,0.9c0.8,0.2,1.7,0.5,2.5,0.8
			c3.3,1.1,5.7,2.6,7.3,4.4c1.5,1.9,2.3,4.3,2.3,7.2c0,2-0.3,3.8-1,5.4c-0.7,1.6-1.7,3-3,4.2c-1.3,1.2-2.9,2.1-4.8,2.7
			c-1.9,0.6-4,1-6.4,1c-4.9,0-9.5-1.5-13.7-4.4l4.4-8.2c1.5,1.3,3,2.4,4.5,3c1.5,0.7,3,1,4.4,1c1.7,0,2.9-0.4,3.7-1.1
			c0.8-0.8,1.2-1.6,1.2-2.6c0-0.6-0.1-1.1-0.3-1.5c-0.2-0.4-0.6-0.8-1-1.2c-0.5-0.4-1.1-0.7-1.9-1c-0.8-0.3-1.7-0.7-2.8-1
			c-1.3-0.4-2.6-0.9-3.9-1.4c-1.3-0.5-2.4-1.2-3.4-2s-1.8-1.9-2.4-3.1c-0.6-1.3-0.9-2.9-0.9-4.8c0-1.9,0.3-3.7,1-5.3
			c0.6-1.6,1.5-2.9,2.7-4c1.2-1.1,2.6-2,4.3-2.6c1.7-0.6,3.6-0.9,5.6-0.9c1.9,0,4,0.3,6.1,0.8c2.1,0.5,4.1,1.3,6.1,2.4L205.3,122.8z
			"/>
	</g>
</g>
<text transform="matrix(1 0 0 1 107.0967 179.2002)" class="st2 st6 st7">for</text>
<text transform="matrix(1 0 0 1 67.3462 211.2002)" class="st0 st8 st9">business</text>
</svg>
